# xmcd
#
# Track frame offsets: 
#        150
#        3516
#        11155
#        21395
#        32800
#        48980
#        61731
#        74517
#        86977
#        101103
#        110613
#        122637
#        132699
#        143759
#
# Disc length: 2076 seconds
#
# Revision: 0
# Processed by: cddbd v1.5.2PL0 Copyright (c) Steve Scherf et al.
# Submitted via: ExactAudioCopyFreeDBPlugin 1.0
#
DISCID=cd081a0e
DTITLE=Pike Cavalero - Torro
DYEAR=2014
DGENRE=Rockabilly
TTITLE0=Artista desconocido - Intro
TTITLE1=Artista desconocido - Torro
TTITLE2=Artista desconocido - My misery
TTITLE3=Artista desconocido - Black hearts club
TTITLE4=Artista desconocido - Ragin' sea
TTITLE5=Artista desconocido - Take it easy
TTITLE6=Artista desconocido - The mine
TTITLE7=Artista desconocido - Let's get this chicken fried
TTITLE8=Artista desconocido - Six shooter blues
TTITLE9=Artista desconocido - Carrera del desengaño
TTITLE10=Artista desconocido - My bunch of lovin' girl
TTITLE11=Artista desconocido - Wannabes
TTITLE12=Artista desconocido - When I've got the blues
TTITLE13=Artista desconocido - Little I.
EXTD=
EXTT0=
EXTT1=
EXTT2=
EXTT3=
EXTT4=
EXTT5=
EXTT6=
EXTT7=
EXTT8=
EXTT9=
EXTT10=
EXTT11=
EXTT12=
EXTT13=
PLAYORDER=
